<svg xmlns="http://www.w3.org/2000/svg" viewBox="0 0 138.2 58.3" enable-background="new 0 0 138.2 58.3" xmlns:xlink="http://www.w3.org/1999/xlink"><defs><path id="7" d="m18.9 26.8c-.1 0-.2 0-.3.1.1-.1.2-.1.3-.1"/><linearGradient id="5" gradientUnits="userSpaceOnUse" x1="-.147" y1="62.29" x2="24.695" y2="9.01" xlink:href="#1"/><linearGradient id="4" gradientUnits="userSpaceOnUse" x1="-1.312" y1="52.992" x2="11.744" y2="24.993" xlink:href="#2"/><linearGradient id="6" gradientUnits="userSpaceOnUse" x2="0" xlink:href="#1"/><linearGradient id="3" gradientUnits="userSpaceOnUse" x1="-3.845" y1="56.54" x2="20.998" y2="3.264" xlink:href="#1"/><linearGradient id="1" gradientUnits="userSpaceOnUse" x1="-4.743" y1="59.765" x2="20.1" y2="6.488"><stop offset=".323" stop-color="#9e2064"/><stop offset=".63" stop-color="#c82038"/><stop offset=".751" stop-color="#cc2135"/><stop offset="1" stop-color="#e87926"/></linearGradient><linearGradient id="0" gradientUnits="userSpaceOnUse" x1="21.993" y1="4.948" x2="34.21" y2="1.552"><stop stop-color="#f59824"/><stop offset=".312" stop-color="#f69924"/><stop offset=".838" stop-color="#e87926"/></linearGradient><linearGradient id="2" gradientUnits="userSpaceOnUse" x1="3.595" y1="55.824" x2="18.399" y2="24.08"><stop stop-color="#282661"/><stop offset=".095" stop-color="#662f8b"/><stop offset=".788" stop-color="#9e2064"/><stop offset=".949" stop-color="#cc2032"/></linearGradient></defs><g fill="#d12229"><path d="m31.8 37.4l8.4-20.1h1.6l8.4 20.1h-2.1l-2.6-6.3h-9l-2.6 6.3h-2.1m9.2-17.8l-4.1 10h8.2l-4.1-10"/><path d="m52.4 37.4v-20.1h8.3c3.5 0 6 3.2 6 6.3 0 3.3-2.3 6.4-5.8 6.4h-6.6v7.4h-1.9m2-9.2h6.4c2.4 0 3.9-2.2 3.9-4.6 0-2.5-1.9-4.6-4.1-4.6h-6.3l.1 9.2"/><path d="m65.6 37.4l8.4-20.1h1.6l8.4 20.1h-2.1l-2.6-6.3h-9l-2.6 6.3h-2.1m9.3-17.8l-4.1 10h8.2l-4.1-10"/><path d="m93.6 17.1c3.6 0 6.2 1.8 7.4 4.4l-1.6 1c-1.3-2.7-3.8-3.6-6-3.6-4.8 0-7.5 4.3-7.5 8.4 0 4.5 3.3 8.5 7.5 8.5 2.3 0 4.9-1.1 6.2-3.7l1.6.8c-1.3 3-4.9 4.7-8 4.7-5.5 0-9.4-5.3-9.4-10.4.2-4.9 3.7-10.1 9.8-10.1"/><path d="m120.1 17.3v20.1h-2v-9.4h-11.9v9.4h-2v-20.1h2v9h11.9v-9h2"/><path d="m138.2 35.6v1.8h-13.5v-20.1h13.3v1.7h-11.3v7.3h9.9v1.7h-9.9v7.7l11.5-.1"/></g><path d="m24.8.3c-.9.5-2.4 2.1-4.2 4.3l1.7 3.1c1.2-1.7 2.4-3.2 3.6-4.5.1-.1.1-.2.1-.2s-.1.1-.1.2c-.4.4-1.6 1.8-3.3 4.5 1.7-.1 4.3-.4 6.5-.8.6-3.6-.6-5.2-.6-5.2s-1.8-2.5-3.7-1.4" fill="url(#0)"/><g fill="#bd212f"><path d="m19.2 26.7c-.2 0-.4.1-.7.1.1 0 .2 0 .3-.1.2 0 .3 0 .4 0"/><path d="m19.2 26.7c-.2 0-.4.1-.7.1.1 0 .2 0 .3-.1.2 0 .3 0 .4 0" opacity=".35"/><path d="m19.8 24c0 0 0 0 0 0h.1c.1 0 .3 0 .4-.1-.2 0-.3 0-.5.1"/><path d="m19.8 24c0 0 0 0 0 0h.1c.1 0 .3 0 .4-.1-.2 0-.3 0-.5.1" opacity=".35"/></g><path d="m17.3 15.8c.5-.9 1-1.9 1.5-2.8.5-.9 1.1-1.8 1.6-2.7 0-.1.1-.1.1-.2.5-.9 1.1-1.7 1.6-2.5l-1.7-3.1c-.1.2-.3.3-.4.5-.5.6-1 1.2-1.5 1.9-.6.8-1.2 1.6-1.8 2.5-.6.8-1.1 1.6-1.7 2.5-.5.7-1 1.5-1.4 2.3 0 0 0 .1-.1.1l2.2 4.3c.7-1 1.2-1.9 1.6-2.8" fill="url(#1)"/><path d="m7.4 40c-.3.8-.6 1.6-.9 2.4 0 .1-.1.2-.1.3-.2.6-.4 1.1-.8 2.2.6.3 1.2 1.1 1.6 1.9-.1-.9-.4-1.7-1.1-2.4 3.2.1 5.9-.7 7.3-3 .1-.2.2-.4.3-.6-.6.8-1.4 1.2-2.9 1.1 2.2-1 3.3-1.9 4.3-3.5.2-.4.5-.8.7-1.2-1.9 2-4.1 2.5-6.5 2.1l-1.8.2c.1.2 0 .3-.1.5" fill="url(#2)"/><path d="m8.3 36.1c.4-1 .8-2 1.2-3 .4-1 .8-1.9 1.2-2.9.4-1 .8-1.9 1.2-2.9.4-1 .9-2 1.3-3 .4-1 .9-1.9 1.3-2.9.2-.3.3-.7.5-1 .3-.6.6-1.2.9-1.8 0 0 0-.1 0-.1l-2.2-4.3c0 .1-.1.1-.1.2-.5.8-1 1.7-1.5 2.5-.5.9-1 1.8-1.5 2.7-.4.8-.8 1.5-1.2 2.3-.1.2-.2.3-.2.5-.5 1-.9 1.9-1.3 2.8-.4 1-.8 2-1.2 2.9-.2.6-.4 1.2-.6 1.8-.2.5-.3 1-.4 1.4-.3 1.1-.6 2.3-.8 3.4l2.2 4.3c.3-.8.6-1.6.9-2.3.1-.2.2-.4.3-.6" fill="url(#3)"/><path d="m4.9 34.9c-.3 1.4-.5 2.7-.6 4.1 0 0 0 .1 0 .1-.6-1-2.5-2.1-2.5-2.1 1.3 1.9 2.3 3.8 2.4 5.6-.7.1-1.7-.1-2.8-.5 1.2 1.1 2 1.4 2.4 1.4-1.1.1-2.2.8-3.3 1.6 1.6-.7 2.9-.9 3.9-.7-1.4 4.3-2.9 9-4.4 13.9.5-.1.7-.4.9-.9.3-.9 2-6.8 4.8-14.5.1-.2.2-.4.2-.7 0-.1 0-.1.1-.2.3-.8.6-1.6.9-2.5.1 0 .1-.2.2-.4l-2.2-4.3c0 0 0 .1 0 .1" fill="url(#4)"/><path d="m16.3 18.9c-.1.1-.1.3-.2.4-.2.4-.4.8-.6 1.2-.2.4-.4.9-.6 1.3-.1.2-.2.5-.3.7-.3.7-.7 1.4-1 2.2-.4.9-.8 1.9-1.3 2.9-.4 1-.8 1.9-1.2 3-.4 1-.8 2-1.2 3-.4.9-.7 1.9-1.1 2.8 0 0 0 .1-.1.1-.4 1-.7 1.9-1.1 3 0 0 0 0 0 .1l1.8-.2c0 0-.1 0-.1 0 2.1-.3 4.9-1.8 6.7-3.8.8-.9 1.6-1.9 2.3-3.2.5-.9 1-1.9 1.5-3.1.4-1 .8-2 1.2-3.2-.5.3-1 .4-1.6.6-.1 0-.2 0-.3.1-.1 0-.2 0-.3.1 0 0 0 0 0 0 2-.8 3.2-2.2 4.1-4-.5.4-1.4.8-2.4 1-.1 0-.3.1-.4.1 0 0-.1 0-.1 0 0 0 0 0 0 0 .7-.3 1.3-.6 1.7-1 .1-.1.2-.2.3-.2.2-.1.3-.3.4-.4.1-.1.2-.2.3-.3.2-.2.4-.5.5-.8.1-.1.1-.2.2-.3.1-.1.1-.2.2-.4.3-.5.5-1 .7-1.5.1-.2.2-.4.2-.6 0-.1.1-.1.1-.2.1-.2.1-.4.2-.6.1-.2.1-.4.1-.6-.1.1-.1.1-.2.2-.6.4-1.6.7-2.4.8l1.6-.2-1.9.3c0 0 0 0 0 0-.1 0-.2 0-.2 0l-5.5.7c0 0 0 0 0 0" fill="url(#3)"/><path d="m22.5 7.8c-.5.8-1 1.6-1.6 2.6 0 .1-.1.1-.1.2-.5.8-1 1.8-1.6 2.8-.5.9-1 1.8-1.5 2.8-.5.9-.9 1.8-1.4 2.8l5.5-.6c1.6-.7 2.3-1.4 3-2.4.2-.3.4-.5.6-.8.6-.9 1.1-1.9 1.6-2.8.5-.9.9-1.9 1.2-2.7.2-.5.4-1 .5-1.5.1-.4.2-.7.2-1.1-2.1.2-4.7.6-6.4.7" fill="url(#5)"/><g fill="#bd212f"><use xlink:href="#7"/><use opacity=".35" xlink:href="#7"/></g><use fill="url(#3)" xlink:href="#7"/><g fill="#bd212f"><path d="m19.8 24c0 0 .1 0 .1 0 0-.1-.1 0-.1 0"/><path d="m19.8 24c0 0 .1 0 .1 0 0-.1-.1 0-.1 0" opacity=".35"/></g><path d="m19.8 24c0 0 .1 0 .1 0 0-.1-.1 0-.1 0" fill="url(#3)"/></svg>